<svg xmlns="http://www.w3.org/2000/svg" viewBox="0 0 25.46 36.1"><defs><style>.cls-1{fill:none;stroke:#fff;stroke-linecap:round;stroke-linejoin:round;stroke-width:0.47px;opacity:0.5;}.cls-2,.cls-3{fill:#fd654f;}.cls-3{opacity:0.39;}.cls-4{fill:#fff;}</style></defs><title>berry (2)</title><g id="Layer_2" data-name="Layer 2"><g id="map"><g id="berry"><line class="cls-1" x1="4.39" y1="5.11" x2="4.39" y2="21.64"/><line class="cls-1" x1="21.6" y1="2.79" x2="21.6" y2="19.31"/><line class="cls-1" x1="12.35" y1="1.03" x2="12.35" y2="17.55"/><path class="cls-2" d="M16.48,8.83a18.13,18.13,0,0,1-1.6-3.38S14.32,3,13.33,5.34a18.59,18.59,0,0,1-2.05,3.13C9.81,10.35,4.46,15.73,5.22,20.6s5.09,8.65,7.24,8.36c2.08.64,6.94-2.56,8.36-7.28S17.68,10.9,16.48,8.83Zm1.64,5c.61,2,1,3.56.61,4.12a14.41,14.41,0,0,0-1.09-2.64C17.15,14.63,17.51,11.9,18.12,13.85ZM16.3,10.17l1,1.39-.36.56S15.94,10.73,16.3,10.17Zm.69,10c-1.41,1.95-2.46,1.16-2.46,1.16.32-.26.16-1.21.72-1.12s.33-.26,1.26-.73S17,20.17,17,20.17Zm-1,2.94c-1.21.43-1.29-1.13-.73-1a4.41,4.41,0,0,0,1.82-.64A1.63,1.63,0,0,1,16,23.11Zm-1.52-16a1.69,1.69,0,0,1,.23.49.83.83,0,0,1,0,.15,1.38,1.38,0,0,0,.08.29,2.42,2.42,0,0,0,.27.5l.39.59c.08.12.16.29.07.41a.3.3,0,0,1-.24.09,1.46,1.46,0,0,1-.74-.14.38.38,0,0,1-.16-.12c-.1-.15,0-.37,0-.54s0-.53,0-.79-.05-.7-.09-1C14.38,6.92,14.45,7,14.5,7.06Zm.38,2.88c.57.09.21.66.21.66-.25-.35-1.14-.18-1.14-.18C14,9.81,14.32,9.86,14.88,9.94Zm-.4.87A1.64,1.64,0,0,1,16,12.59s-1.34-.83-2-.31S13.91,10.72,14.48,10.81Zm1.34,3c1.13,2.35.48,2.86,1,3.25s-.28,2.13-.81,1.73a5.29,5.29,0,0,1-2.51-5S14.68,11.46,15.82,13.8ZM11.7,9.26c.32-.45.65-.89,1-1.33A2.52,2.52,0,0,0,13,7.49c.09-.17.18-.4.37-.41a2.85,2.85,0,0,1-.42,1.14,3.87,3.87,0,0,0-.22.52,2.55,2.55,0,0,1,0,.73h-.8c-.09,0-.2,0-.2-.12A.12.12,0,0,1,11.7,9.26ZM13,10.4s-.87-.28-1.15,0c0,0-.3-.6.27-.62S13,9.79,13,10.4Zm-.56.33c.57,0,.92,2.11.33,1.52s-2,.06-2,.06A1.59,1.59,0,0,1,12.45,10.73ZM10.7,9.86c.31.61-.8,1.87-.8,1.87l-.3-.61ZM9.48,16.64c.56-.32,0-.92,1.34-3.1s2.29.23,2.29.23a5.12,5.12,0,0,1-3,4.69C9.55,18.78,8.92,17,9.48,16.64ZM9,19.72s-.32-1.21.56-.63.6.9,1.17.88.31.91.61,1.21C11.34,21.18,10.21,21.83,9,19.72Zm.67,3A1.69,1.69,0,0,1,8.76,21s1.17.89,1.74.87S10.83,23.34,9.67,22.76ZM8.52,13.3c.8-1.86.88.89.33,1.52a13.94,13.94,0,0,0-1.35,2.5C7.19,16.71,7.72,15.16,8.52,13.3ZM6.06,17.05c0-1.22,1.1-1.56.84-.63A6.46,6.46,0,0,0,7,18.86l-.85,0C5.26,18.92,6.1,18.28,6.06,17.05Zm-.13,4a3.26,3.26,0,0,1,.22-1.23,1.39,1.39,0,0,1,.38-.09s0,0,0,0a.73.73,0,0,1,.71-.14.68.68,0,0,1,.44.56,1.88,1.88,0,0,1-.09.57s0,.11,0,.16l0,1.38h0a.5.5,0,0,1,0,.12c0,.07-.1.13-.17.11a.22.22,0,0,1-.11-.05C6.85,22,6,21.69,5.93,21ZM8.1,24.56c-.15-.08-.28-.2-.42-.29s-.45-.21-.58-.41v-.13a1,1,0,0,1,.3-.57.53.53,0,0,1,.6-.08l.23.17a1.22,1.22,0,0,0,.24.1,1.91,1.91,0,0,1,.63.29.87.87,0,0,1,.36.58.09.09,0,0,1,0,.09.1.1,0,0,1-.1.05c-.21,0-.46-.05-.64.09a1.27,1.27,0,0,1-.12.1A.46.46,0,0,1,8.1,24.56Zm3.76,2.71a2.23,2.23,0,0,1-.16,1l-.06.07c-.26.22-.74,0-1-.21a3.6,3.6,0,0,1-.58-.65,11.56,11.56,0,0,0-1.48-1.57,2.17,2.17,0,0,1,.55-.5,5.46,5.46,0,0,0,.47-.31,1,1,0,0,0,.25-1.16,1.7,1.7,0,0,1,1.48.18,1.86,1.86,0,0,1,.48,1.27A12.31,12.31,0,0,1,11.86,27.27Zm.68-4.22a5.93,5.93,0,0,1,0,.73.28.28,0,0,1,0,.09c0,.1-.2.11-.29.05a.9.9,0,0,1-.21-.27c-.17-.25-.54-.29-.73-.51s0-.44.18-.75a2.25,2.25,0,0,1,.37-.54.35.35,0,0,1,.11-.1.43.43,0,0,1,.16,0l.27,0a.15.15,0,0,1,.11,0s0,.11,0,.16a.36.36,0,0,0,0,.1A3.69,3.69,0,0,0,12.54,23.05ZM12.62,21c-.7.48-.76-1.36-.76-1.36-.26.62-.73-.44-.73-.44.58,0,1.9-3.42,1.9-3.42l.36,0s1,3.56,1.54,3.65c0,0-.57,1-.77.34,0,0-.24,1.82-.89,1.25Zm.4,3.13A.19.19,0,0,1,13,24a6,6,0,0,1,.07-1.27,2.86,2.86,0,0,1,.23-1h0l0-.05a.37.37,0,0,1,.46.07,1.22,1.22,0,0,1,.45.34,1.1,1.1,0,0,1,.22.89.27.27,0,0,1,.07.17c0,.06-.09.12-.21.17s0,0,0,0h0a.25.25,0,0,1,0,.07.36.36,0,0,1-.29.08,1.35,1.35,0,0,0-.59.44.59.59,0,0,1-.17.18A.16.16,0,0,1,13,24.12Zm3.1,2.13a6.09,6.09,0,0,1-1.64,1.81,1.32,1.32,0,0,1-.63.42.24.24,0,0,1-.3-.1s0,0,0-.05c-.22-.23-.08-1-.06-1.28h0l-.07-1.38-.05-.88a.55.55,0,0,1,0-.22.36.36,0,0,1,.14-.16,1.34,1.34,0,0,1,.76-.26.74.74,0,0,1,.37-.17.83.83,0,0,1,.49.08,1,1,0,0,0,.25-.08,1.66,1.66,0,0,1,.37-.14.3.3,0,0,1,.33.14c.07.16,0,.32-.16.45a1.24,1.24,0,0,0-.17.27,1.31,1.31,0,0,1,.07.53c.13.1.3.15.4.28S16.27,26,16.12,26.25ZM18.6,24.4l0,.09a.91.91,0,0,1-.24.24l-.84.67a.71.71,0,0,1-.22.13.21.21,0,0,1-.23-.07c0-.05,0-.12-.07-.17s-.33,0-.49-.12c-.53-.25.72-1.17.89-1.39a.69.69,0,0,1,.33-.28c.21-.07.43.1.59.25S18.67,24.16,18.6,24.4Zm1.26-2.87a3,3,0,0,1-.34.81.47.47,0,0,1-.22.22.64.64,0,0,1-.2,0c-.29,0-.9.27-1.16.13s0-.85.15-1.1a5.23,5.23,0,0,1,.58-.89,1.37,1.37,0,0,1,.44-.36.63.63,0,0,1,.55,0,.49.49,0,0,1,.22.23.8.8,0,0,1,.09.31A1.94,1.94,0,0,1,19.86,21.53ZM20,19.71l-.85-.13a6.58,6.58,0,0,0,.32-2.43c-.16-.95.93-.47.77.74S20.8,19.84,20,19.71Z"/><ellipse class="cls-3" cx="13" cy="34.65" rx="6.28" ry="1.44"/><line class="cls-1" x1="25.16" y1="6.69" x2="25.16" y2="23.22"/><line class="cls-1" x1="20.07" y1="12.14" x2="20.07" y2="28.67"/><line class="cls-1" x1="13.27" y1="15.69" x2="13.27" y2="32.22"/><line class="cls-1" x1="5.77" y1="15.69" x2="5.77" y2="32.22"/><line class="cls-1" x1="0.24" y1="10.74" x2="0.24" y2="27.26"/><circle class="cls-4" cx="24.66" cy="14.52" r="0.8"/><circle class="cls-4" cx="4.74" cy="7.04" r="0.8"/><circle class="cls-4" cx="16.26" cy="12.59" r="0.8"/><circle class="cls-4" cx="15.46" cy="5.83" r="0.8"/><circle class="cls-4" cx="4.74" cy="19.38" r="0.8"/><circle class="cls-4" cx="11.51" cy="0.33" r="0.33"/><circle class="cls-4" cx="18.5" cy="5.83" r="0.33"/><circle class="cls-4" cx="6.23" cy="12.26" r="0.33"/><circle class="cls-4" cx="14.54" cy="17.64" r="0.33"/><circle class="cls-4" cx="1.56" cy="9.25" r="0.33"/><circle class="cls-4" cx="22.87" cy="3.77" r="0.33"/><circle class="cls-4" cx="18.33" cy="17.3" r="0.33"/></g></g></g></svg>