<svg xmlns="http://www.w3.org/2000/svg" viewBox="0 0 31.72 45.19"><defs><style>.cls-1{fill:none;stroke:#fff;stroke-linecap:round;stroke-linejoin:round;stroke-width:0.59px;opacity:0.5;}.cls-2,.cls-3{fill:#444;}.cls-2{opacity:0.2;}.cls-4{fill:#282828;}.cls-5{fill:#fff;}</style></defs><title>piece (2)</title><g id="Layer_2" data-name="Layer 2"><g id="map"><g id="piece"><line class="cls-1" x1="26.25" y1="6.37" x2="26.25" y2="26.96"/><line class="cls-1" x1="4.81" y1="3.47" x2="4.81" y2="24.07"/><line class="cls-1" x1="16.34" y1="1.28" x2="16.34" y2="21.87"/><ellipse class="cls-2" cx="18.65" cy="43.4" rx="11.53" ry="1.79"/><path class="cls-3" d="M20.6,25.23v-.05a1,1,0,0,1,.17-.32,4.71,4.71,0,0,0,1.12-2.8,3.67,3.67,0,0,0-.79-2,12.33,12.33,0,0,0-2-1.87c-2.6-2.23-3-6.06-4.6-9.07A34.57,34.57,0,0,1,21,14.6a9,9,0,0,0,1.59,1.67,15.1,15.1,0,0,1,1.56,1,4.34,4.34,0,0,1,.9,1.43,31.59,31.59,0,0,1,2.74,15.89c-2.27-.13-4.66-.6-5.64-2.57-.45-.92-.25-2.3-.31-3.29a6.55,6.55,0,0,0-.38-1.92C21.31,26.47,20.6,25.63,20.6,25.23Z"/><path class="cls-3" d="M18.65,35.36l.29-.19a3.38,3.38,0,0,0,1.23-1.11,3.47,3.47,0,0,0,.32-1.42c.21-2.62.24-5.67-1.77-7.36-1.2-1-2.84-1.24-4.29-1.81s-2.93-1.8-2.79-3.36a3.31,3.31,0,0,1,2.72-2.59c.53-.12,1.13-.21,1.42-.67a1.72,1.72,0,0,0-.07-1.48A42,42,0,0,0,9,3.56c-1.73,2.27-.27,4.85-.66,7.3-.35,2.23-1.61,4.68-2.69,7a25.69,25.69,0,0,0,2.82,6.65A33.79,33.79,0,0,0,18.65,35.36Z"/><path class="cls-4" d="M4.28,21.53A3.85,3.85,0,0,0,4.74,23c1,2.21,2,4.43,3.05,6.64a34.15,34.15,0,0,0,3,5.53,34.39,34.39,0,0,0,2.88,3.39l5-3.23A33.79,33.79,0,0,1,8.46,24.47a25.69,25.69,0,0,1-2.82-6.65c-.36.75-.69,1.47-1,2.17A4,4,0,0,0,4.28,21.53Z"/><line class="cls-1" x1="0.37" y1="9.8" x2="0.37" y2="30.39"/><line class="cls-1" x1="6.71" y1="16.59" x2="6.71" y2="37.19"/><line class="cls-1" x1="15.19" y1="21.01" x2="15.19" y2="41.6"/><line class="cls-1" x1="24.53" y1="21.01" x2="24.53" y2="41.6"/><line class="cls-1" x1="31.43" y1="14.84" x2="31.43" y2="35.44"/><circle class="cls-5" cx="0.99" cy="18.09" r="0.99"/><circle class="cls-5" cx="25.81" cy="8.77" r="0.99"/><circle class="cls-5" cx="11.46" cy="15.69" r="0.99"/><circle class="cls-5" cx="12.45" cy="7.26" r="0.99"/><circle class="cls-5" cx="25.81" cy="24.15" r="0.99"/><circle class="cls-5" cx="17.38" cy="0.42" r="0.42"/><circle class="cls-5" cx="8.67" cy="7.26" r="0.42"/><circle class="cls-5" cx="23.95" cy="15.27" r="0.42"/><circle class="cls-5" cx="13.61" cy="21.98" r="0.42"/><circle class="cls-5" cx="29.78" cy="11.53" r="0.42"/><circle class="cls-5" cx="3.22" cy="4.69" r="0.42"/><circle class="cls-5" cx="8.88" cy="21.56" r="0.42"/></g></g></g></svg>