<svg xmlns="http://www.w3.org/2000/svg" viewBox="0 0 1265.85 656.17"><defs><style>.cls-1{fill:#81272d;}.cls-2{fill:#bf4f57;}.cls-3,.cls-4,.cls-7,.cls-8{fill:none;stroke-linecap:round;stroke-miterlimit:10;}.cls-3,.cls-7{stroke:#81272d;}.cls-3{stroke-width:5px;}.cls-4{stroke:#000;stroke-width:8px;}.cls-5{fill:#050505;}.cls-6{fill:#efefef;}.cls-7{stroke-width:11px;}.cls-8{stroke:#bf4f57;stroke-width:10px;}</style></defs><title>PIG</title><g id="Layer_6" data-name="Layer 6"><path class="cls-1" d="M671.53,657.65,545,775l70,3-1.59,63.45S775.12,731.6,784.49,684.1,671.53,657.65,671.53,657.65Z" transform="translate(-239.65 -245)"/><path class="cls-2" d="M674.27,631.61,555,767h60v62S779.9,711,789.45,660,674.27,631.61,674.27,631.61Z" transform="translate(-239.65 -245)"/><path d="M614.7,698,553,768h60v62s34.89-25,73.5-56.88C641,716,614.7,698,614.7,698Z" transform="translate(-239.65 -245)"/></g><g id="Layer_5" data-name="Layer 5"><path class="cls-1" d="M709.4,708.85,614.11,852.73l68.74-13.59,13.41,62S827.51,756.29,825.41,707.92,709.4,708.85,709.4,708.85Z" transform="translate(-239.65 -245)"/><path class="cls-2" d="M705.92,682.9,622,842.6l58.3-14.15,14.62,60.25S827.31,735.17,824.56,683.34,705.92,682.9,705.92,682.9Z" transform="translate(-239.65 -245)"/><path d="M663.68,761.42,620.24,844l58.31-14.15,14.62,60.25s28-32.48,58-72.61C693.49,772.75,663.68,761.42,663.68,761.42Z" transform="translate(-239.65 -245)"/></g><g id="BODY"><ellipse class="cls-1" cx="729.85" cy="251.5" rx="399.5" ry="251.5"/><ellipse class="cls-2" cx="704.85" cy="249" rx="399.5" ry="240"/></g><g id="HEAD"><path class="cls-1" d="M764,506.93c0,89.44-77.23,188-172.5,188-51.87,0-52,34-83.67,0-6.24-6.71-121.87-7.15-136.35-29.16-5.22-7.93-20.45-16.89-38.56-28.25-7.87-4.94,3.44,39.71-44.07,37.62-13.64-.59-2.84-70.78-12.46-81-31.78-33.71-47.67-81.28,2.13-152.27,16.52,8.33,51,93.91,52.68,85.39,1.77-9,18.64-20.7,32.84-31.31,11.51-8.6,21.27-16.51,19.84-21.8-5.26-19.44,26.07-15,27.89-23.95,8.26-40.62,26.85-39.57,45.43-44.89,31.62-36.77,80-60.29,134.3-60.29C686.77,345,764,417.5,764,506.93Z" transform="translate(-239.65 -245)"/><path class="cls-2" d="M740.5,508c0,85.88-74.77,180.5-167,180.5-50.21,0-50.39,32.66-81,0-6-6.44-118-6.86-132-28-5.05-7.62-19.8-16.22-37.33-27.13-7.62-4.74,3.33,38.13-42.67,36.13-13.21-.57-2.74-68-12.06-77.78-30.76-32.37-46.15-78,2.06-146.22,16,8,49.38,90.18,51,82,1.72-8.69,18.05-19.88,31.8-30.07,11.14-8.25,20.58-15.85,19.2-20.93-5.09-18.67,25.24-14.41,27-23,8-39,26-38,44-43.1,30.61-35.31,77.48-57.9,130-57.9C665.73,352.5,740.5,422.12,740.5,508Z" transform="translate(-239.65 -245)"/><path class="cls-1" d="M517.83,427.3S481.69,467.23,621.25,470s129.59-84,129.59-84Z" transform="translate(-239.65 -245)"/><path d="M515.87,424s-36.44,36.44,104.29,39,130.68-76.65,130.68-76.65Z" transform="translate(-239.65 -245)"/><path class="cls-1" d="M515.87,424s46.49-41.46,71.62-36.44,146.53,6.7,161.85-.42-94,48.17-127.92,48.17S538.48,452.94,515.87,424Z" transform="translate(-239.65 -245)"/><path class="cls-3" d="M338,511s24,0,25,27" transform="translate(-239.65 -245)"/><path class="cls-1" d="M271,594s20,16,82-33,126,7,126,18-17-30-85-21-75,44-86,54S281,636,271,594Z" transform="translate(-239.65 -245)"/><path d="M271,599s20,16,82-33,126,7,126,18-17-30-85-21-75,44-86,54S281,641,271,599Z" transform="translate(-239.65 -245)"/><path class="cls-4" d="M333,514s24,0,25,27" transform="translate(-239.65 -245)"/><path class="cls-3" d="M356,497s24,0,25,27" transform="translate(-239.65 -245)"/><path class="cls-4" d="M351,500s24,0,25,27" transform="translate(-239.65 -245)"/><path class="cls-3" d="M371,485s24,0,25,27" transform="translate(-239.65 -245)"/><path class="cls-4" d="M366,488s24,0,25,27" transform="translate(-239.65 -245)"/><path class="cls-1" d="M303.36,531c8.1,20.25,5.1,40.5-6.69,45.22s-27.92-7.88-36-28.14,1.57-50.32,13.36-55S295.25,510.7,303.36,531Z" transform="translate(-239.65 -245)"/><path class="cls-5" d="M303.36,540c8.1,20.25,5.1,40.5-6.69,45.22s-27.92-7.88-36-28.14,1.57-50.32,13.36-55S295.25,519.7,303.36,540Z" transform="translate(-239.65 -245)"/><path class="cls-1" d="M418,482.82s18.76-6.18,30.9-19.78,33.1,0,33.1,0-17.66,26-32,26S418,482.82,418,482.82Z" transform="translate(-239.65 -245)"/><path class="cls-6" d="M421,484s17-5,28-16,30,0,30,0-16,21-29,21S421,484,421,484Z" transform="translate(-239.65 -245)"/></g><g id="Layer_8" data-name="Layer 8"><path class="cls-7" d="M1349.5,491.5S1406,542,1458,490s-22-75-36-53,3,97,78,87" transform="translate(-239.65 -245)"/><path class="cls-8" d="M1344,483s62,50,114-2-22-75-36-53,3,97,78,87" transform="translate(-239.65 -245)"/></g><g id="Layer_7" data-name="Layer 7"><path class="cls-1" d="M1245.54,641.09,1414,678.72l-59,37.85,33.34,54s-195-13.43-227-49.74S1245.54,641.09,1245.54,641.09Z" transform="translate(-239.65 -245)"/><path class="cls-2" d="M1230.06,620l171.23,56.88-51.83,30.22,31.23,53.56s-201.87-18.84-235.82-58.1S1230.06,620,1230.06,620Z" transform="translate(-239.65 -245)"/><path d="M1314.94,647.28l88.58,29.42-51.83,30.23,31.23,53.56s-42.71-4-92.14-12.11C1301.31,676.11,1314.94,647.28,1314.94,647.28Z" transform="translate(-239.65 -245)"/><path class="cls-1" d="M1239.29,664.05,1344.43,800.9l-69.52-8.75-9,62.83S1124.8,719.65,1123.5,671.24,1239.29,664.05,1239.29,664.05Z" transform="translate(-239.65 -245)"/><path class="cls-2" d="M1241,637.92l95,153.42-59.16-10-10.36,61.13s-142.87-143.87-143.75-195.77S1241,637.92,1241,637.92Z" transform="translate(-239.65 -245)"/><path d="M1288.58,713.29l49.13,79.37-59.15-10-10.37,61.13s-30.22-30.44-63-68.37C1259.64,726.68,1288.58,713.29,1288.58,713.29Z" transform="translate(-239.65 -245)"/></g></svg>